<svg width="260" height="80" viewBox="0 0 260 80" fill="none" xmlns="http://www.w3.org/2000/svg">
<path d="M66.1 53.2H74.9V59H62.2C60 56.9333 58.3333 54.3167 57.2 51.15C56.0667 47.9833 55.5 44.7333 55.5 41.4C55.5 38.0333 56.1333 34.8 57.4 31.7C58.6667 28.6 60.55 26.0333 63.05 24H74.9V30H66.1C65.2 31.0333 64.4167 32.7 63.75 35C63.1167 37.3 62.8 39.5 62.8 41.6C62.8 43.7 63.1167 45.9 63.75 48.2C64.4167 50.5 65.2 52.1667 66.1 53.2ZM99.968 59L98.918 53.45H91.018L89.968 59H83.168L89.918 24H100.268L106.668 59H99.968ZM94.868 30.5L92.918 42.15L91.818 48.1H98.068L96.918 42.15L94.968 30.5H94.868ZM116.08 24H129.38C131.48 24.7 133.263 26 134.73 27.9C136.23 29.7667 136.98 32.0667 136.98 34.8C136.98 39.2667 135.213 42.55 131.68 44.65L136.73 59H129.73L125.48 46.25H122.83V59H116.08V24ZM122.83 30V40.65H127.13C127.696 40.5167 128.313 39.95 128.98 38.95C129.68 37.9167 130.03 36.7167 130.03 35.35C130.03 33.9833 129.73 32.7833 129.13 31.75C128.563 30.7167 127.996 30.1333 127.43 30H122.83ZM159.841 43H159.641H159.841L162.491 32.05L164.641 24H170.891L173.141 59H166.591L165.641 39.9H165.391L161.791 54H157.691L154.091 39.9H153.841L152.891 59H146.341L148.591 24H154.841L156.991 32.05L159.641 43H159.841ZM198.57 59L197.52 53.45H189.62L188.57 59H181.77L188.52 24H198.87L205.27 59H198.57ZM193.47 30.5L191.52 42.15L190.42 48.1H196.67L195.52 42.15L193.57 30.5H193.47Z" fill="black"/>
</svg>
