<svg width="100" height="78" viewBox="0 0 100 78" fill="none" xmlns="http://www.w3.org/2000/svg">
<path d="M58.3363 58.3363C54.2298 62.4428 48.9287 65.1438 43.1928 66.0523C37.4569 66.9608 31.5806 66.0301 26.4061 63.3936C21.2317 60.757 17.0247 56.5501 14.3882 51.3756C11.7517 46.2012 10.821 40.3249 11.7294 34.5889C12.6379 28.853 15.339 23.5519 19.4454 19.4454C23.5519 15.339 28.853 12.6379 34.5889 11.7294C40.3249 10.821 46.2012 11.7517 51.3756 14.3882C56.5501 17.0247 60.757 21.2317 63.3935 26.4061L38.8909 38.8909L58.3363 58.3363Z" fill="black"/>
<mask id="path-2-inside-1_67_1919" fill="white">
<path fill-rule="evenodd" clip-rule="evenodd" d="M94.9432 39.7125C94.0347 45.4484 91.3336 50.7495 87.2272 54.856L67.7817 35.4105L92.2844 22.9258C94.9209 28.1002 95.8517 33.9765 94.9432 39.7125ZM87.8909 44.5196C88.9954 44.5196 89.8909 43.6242 89.8909 42.5196C89.8909 41.4151 88.9954 40.5196 87.8909 40.5196C86.7863 40.5196 85.8909 41.4151 85.8909 42.5196C85.8909 43.6242 86.7863 44.5196 87.8909 44.5196ZM81.8909 37.5196C81.8909 38.6242 80.9954 39.5196 79.8909 39.5196C78.7863 39.5196 77.8909 38.6242 77.8909 37.5196C77.8909 36.4151 78.7863 35.5196 79.8909 35.5196C80.9954 35.5196 81.8909 36.4151 81.8909 37.5196ZM87.8909 33.5196C88.9954 33.5196 89.8909 32.6242 89.8909 31.5196C89.8909 30.4151 88.9954 29.5196 87.8909 29.5196C86.7863 29.5196 85.8909 30.4151 85.8909 31.5196C85.8909 32.6242 86.7863 33.5196 87.8909 33.5196Z"/>
</mask>
<path fill-rule="evenodd" clip-rule="evenodd" d="M94.9432 39.7125C94.0347 45.4484 91.3336 50.7495 87.2272 54.856L67.7817 35.4105L92.2844 22.9258C94.9209 28.1002 95.8517 33.9765 94.9432 39.7125ZM87.8909 44.5196C88.9954 44.5196 89.8909 43.6242 89.8909 42.5196C89.8909 41.4151 88.9954 40.5196 87.8909 40.5196C86.7863 40.5196 85.8909 41.4151 85.8909 42.5196C85.8909 43.6242 86.7863 44.5196 87.8909 44.5196ZM81.8909 37.5196C81.8909 38.6242 80.9954 39.5196 79.8909 39.5196C78.7863 39.5196 77.8909 38.6242 77.8909 37.5196C77.8909 36.4151 78.7863 35.5196 79.8909 35.5196C80.9954 35.5196 81.8909 36.4151 81.8909 37.5196ZM87.8909 33.5196C88.9954 33.5196 89.8909 32.6242 89.8909 31.5196C89.8909 30.4151 88.9954 29.5196 87.8909 29.5196C86.7863 29.5196 85.8909 30.4151 85.8909 31.5196C85.8909 32.6242 86.7863 33.5196 87.8909 33.5196Z" fill="black"/>
<path d="M87.2272 54.856L86.5201 55.5631L87.2272 56.2702L87.9343 55.5631L87.2272 54.856ZM94.9432 39.7125L93.9555 39.556L93.9555 39.556L94.9432 39.7125ZM67.7817 35.4105L67.3277 34.5195L66.1014 35.1444L67.0746 36.1176L67.7817 35.4105ZM92.2844 22.9258L93.1754 22.4718L92.7214 21.5808L91.8304 22.0348L92.2844 22.9258ZM87.9343 55.5631C92.1901 51.3073 94.9893 45.8134 95.9309 39.8689L93.9555 39.556C93.08 45.0834 90.4772 50.1917 86.5201 54.1488L87.9343 55.5631ZM67.0746 36.1176L86.5201 55.5631L87.9343 54.1488L68.4888 34.7034L67.0746 36.1176ZM91.8304 22.0348L67.3277 34.5195L68.2357 36.3015L92.7384 23.8168L91.8304 22.0348ZM95.9309 39.8689C96.8724 33.9244 95.9078 27.8344 93.1754 22.4718L91.3934 23.3798C93.9341 28.3661 94.8309 34.0287 93.9555 39.556L95.9309 39.8689ZM88.8909 42.5196C88.8909 43.0719 88.4432 43.5196 87.8909 43.5196V45.5196C89.5477 45.5196 90.8909 44.1765 90.8909 42.5196H88.8909ZM87.8909 41.5196C88.4432 41.5196 88.8909 41.9674 88.8909 42.5196H90.8909C90.8909 40.8628 89.5477 39.5196 87.8909 39.5196V41.5196ZM86.8909 42.5196C86.8909 41.9674 87.3386 41.5196 87.8909 41.5196V39.5196C86.234 39.5196 84.8909 40.8628 84.8909 42.5196H86.8909ZM87.8909 43.5196C87.3386 43.5196 86.8909 43.0719 86.8909 42.5196H84.8909C84.8909 44.1765 86.234 45.5196 87.8909 45.5196V43.5196ZM79.8909 40.5196C81.5477 40.5196 82.8909 39.1765 82.8909 37.5196H80.8909C80.8909 38.0719 80.4432 38.5196 79.8909 38.5196V40.5196ZM76.8909 37.5196C76.8909 39.1765 78.234 40.5196 79.8909 40.5196V38.5196C79.3386 38.5196 78.8909 38.0719 78.8909 37.5196H76.8909ZM79.8909 34.5196C78.234 34.5196 76.8909 35.8628 76.8909 37.5196H78.8909C78.8909 36.9674 79.3386 36.5196 79.8909 36.5196V34.5196ZM82.8909 37.5196C82.8909 35.8628 81.5477 34.5196 79.8909 34.5196V36.5196C80.4432 36.5196 80.8909 36.9674 80.8909 37.5196H82.8909ZM88.8909 31.5196C88.8909 32.0719 88.4432 32.5196 87.8909 32.5196V34.5196C89.5477 34.5196 90.8909 33.1765 90.8909 31.5196H88.8909ZM87.8909 30.5196C88.4432 30.5196 88.8909 30.9674 88.8909 31.5196H90.8909C90.8909 29.8628 89.5477 28.5196 87.8909 28.5196V30.5196ZM86.8909 31.5196C86.8909 30.9674 87.3386 30.5196 87.8909 30.5196V28.5196C86.234 28.5196 84.8909 29.8628 84.8909 31.5196H86.8909ZM87.8909 32.5196C87.3386 32.5196 86.8909 32.0719 86.8909 31.5196H84.8909C84.8909 33.1765 86.234 34.5196 87.8909 34.5196V32.5196Z" fill="black" mask="url(#path-2-inside-1_67_1919)"/>
</svg>
