<svg width="340" height="97" viewBox="0 0 340 97" fill="none" xmlns="http://www.w3.org/2000/svg">
<g clip-path="url(#clip0_15_375)">
<path d="M185.1 62.2H193.9V68H181.2C179 65.9333 177.333 63.3167 176.2 60.15C175.067 56.9833 174.5 53.7333 174.5 50.4C174.5 47.0333 175.133 43.8 176.4 40.7C177.667 37.6 179.55 35.0333 182.05 33H193.9V39H185.1C184.2 40.0333 183.417 41.7 182.75 44C182.117 46.3 181.8 48.5 181.8 50.6C181.8 52.7 182.117 54.9 182.75 57.2C183.417 59.5 184.2 61.1667 185.1 62.2ZM218.968 68L217.918 62.45H210.018L208.968 68H202.168L208.918 33H219.268L225.668 68H218.968ZM213.868 39.5L211.918 51.15L210.818 57.1H217.068L215.918 51.15L213.968 39.5H213.868ZM235.08 33H248.38C250.48 33.7 252.263 35 253.73 36.9C255.23 38.7667 255.98 41.0667 255.98 43.8C255.98 48.2667 254.213 51.55 250.68 53.65L255.73 68H248.73L244.48 55.25H241.83V68H235.08V33ZM241.83 39V49.65H246.13C246.696 49.5167 247.313 48.95 247.98 47.95C248.68 46.9167 249.03 45.7167 249.03 44.35C249.03 42.9833 248.73 41.7833 248.13 40.75C247.563 39.7167 246.996 39.1333 246.43 39H241.83ZM278.841 52H278.641H278.841L281.491 41.05L283.641 33H289.891L292.141 68H285.591L284.641 48.9H284.391L280.791 63H276.691L273.091 48.9H272.841L271.891 68H265.341L267.591 33H273.841L275.991 41.05L278.641 52H278.841ZM317.57 68L316.52 62.45H308.62L307.57 68H300.77L307.52 33H317.87L324.27 68H317.57ZM312.47 39.5L310.52 51.15L309.42 57.1H315.67L314.52 51.15L312.57 39.5H312.47Z" fill="black"/>
<path d="M66.3363 69.3363C62.2298 73.4428 56.9287 76.1438 51.1928 77.0523C45.4569 77.9608 39.5806 77.0301 34.4061 74.3935C29.2317 71.757 25.0247 67.5501 22.3882 62.3756C19.7517 57.2012 18.821 51.3249 19.7294 45.5889C20.6379 39.853 23.339 34.5519 27.4454 30.4454C31.5519 26.339 36.853 23.6379 42.5889 22.7294C48.3249 21.821 54.2012 22.7517 59.3756 25.3882C64.5501 28.0247 68.757 32.2317 71.3935 37.4061L46.8909 49.8909L66.3363 69.3363Z" fill="black"/>
<mask id="path-3-inside-1_15_375" fill="white">
<path fill-rule="evenodd" clip-rule="evenodd" d="M151.052 54.1928C150.144 59.9288 147.443 65.2298 143.336 69.3363L123.891 49.8909L148.394 37.4061C151.03 42.5806 151.961 48.4569 151.052 54.1928ZM144 59C145.105 59 146 58.1046 146 57C146 55.8954 145.105 55 144 55C142.895 55 142 55.8954 142 57C142 58.1046 142.895 59 144 59ZM138 52C138 53.1046 137.105 54 136 54C134.895 54 134 53.1046 134 52C134 50.8954 134.895 50 136 50C137.105 50 138 50.8954 138 52ZM144 48C145.105 48 146 47.1046 146 46C146 44.8954 145.105 44 144 44C142.895 44 142 44.8954 142 46C142 47.1046 142.895 48 144 48Z"/>
</mask>
<path fill-rule="evenodd" clip-rule="evenodd" d="M151.052 54.1928C150.144 59.9288 147.443 65.2298 143.336 69.3363L123.891 49.8909L148.394 37.4061C151.03 42.5806 151.961 48.4569 151.052 54.1928ZM144 59C145.105 59 146 58.1046 146 57C146 55.8954 145.105 55 144 55C142.895 55 142 55.8954 142 57C142 58.1046 142.895 59 144 59ZM138 52C138 53.1046 137.105 54 136 54C134.895 54 134 53.1046 134 52C134 50.8954 134.895 50 136 50C137.105 50 138 50.8954 138 52ZM144 48C145.105 48 146 47.1046 146 46C146 44.8954 145.105 44 144 44C142.895 44 142 44.8954 142 46C142 47.1046 142.895 48 144 48Z" fill="black"/>
<path d="M143.336 69.3363L142.629 70.0434L143.336 70.7505L144.043 70.0434L143.336 69.3363ZM151.052 54.1928L150.065 54.0364L151.052 54.1928ZM123.891 49.8909L123.437 48.9999L122.211 49.6247L123.184 50.598L123.891 49.8909ZM148.394 37.4061L149.285 36.9521L148.831 36.0611L147.94 36.5151L148.394 37.4061ZM144.043 70.0434C148.299 65.7876 151.098 60.2938 152.04 54.3493L150.065 54.0364C149.189 59.5637 146.586 64.6721 142.629 68.6292L144.043 70.0434ZM123.184 50.598L142.629 70.0434L144.043 68.6292L124.598 49.1838L123.184 50.598ZM147.94 36.5151L123.437 48.9999L124.345 50.7819L148.848 38.2971L147.94 36.5151ZM152.04 54.3493C152.982 48.4047 152.017 42.3148 149.285 36.9521L147.503 37.8601C150.043 42.8464 150.94 48.509 150.065 54.0364L152.04 54.3493ZM145 57C145 57.5523 144.552 58 144 58V60C145.657 60 147 58.6569 147 57H145ZM144 56C144.552 56 145 56.4477 145 57H147C147 55.3431 145.657 54 144 54V56ZM143 57C143 56.4477 143.448 56 144 56V54C142.343 54 141 55.3431 141 57H143ZM144 58C143.448 58 143 57.5523 143 57H141C141 58.6569 142.343 60 144 60V58ZM136 55C137.657 55 139 53.6569 139 52H137C137 52.5523 136.552 53 136 53V55ZM133 52C133 53.6569 134.343 55 136 55V53C135.448 53 135 52.5523 135 52H133ZM136 49C134.343 49 133 50.3431 133 52H135C135 51.4477 135.448 51 136 51V49ZM139 52C139 50.3431 137.657 49 136 49V51C136.552 51 137 51.4477 137 52H139ZM145 46C145 46.5523 144.552 47 144 47V49C145.657 49 147 47.6569 147 46H145ZM144 45C144.552 45 145 45.4477 145 46H147C147 44.3431 145.657 43 144 43V45ZM143 46C143 45.4477 143.448 45 144 45V43C142.343 43 141 44.3431 141 46H143ZM144 47C143.448 47 143 46.5523 143 46H141C141 47.6569 142.343 49 144 49V47Z" fill="black" mask="url(#path-3-inside-1_15_375)"/>
<circle cx="82.3909" cy="51" r="5" fill="black"/>
<circle cx="97.3909" cy="51" r="5" fill="black"/>
<circle cx="112.391" cy="51" r="5" fill="black"/>
</g>
<defs>
<clipPath id="clip0_15_375">
<rect width="340" height="97" fill="white"/>
</clipPath>
</defs>
</svg>
