<svg width="189" height="117" viewBox="0 0 189 117" fill="none" xmlns="http://www.w3.org/2000/svg">
<path d="M70.3363 78.3363C66.2298 82.4428 60.9287 85.1438 55.1928 86.0523C49.4569 86.9608 43.5806 86.0301 38.4061 83.3935C33.2317 80.757 29.0247 76.5501 26.3882 71.3756C23.7517 66.2012 22.821 60.3249 23.7294 54.5889C24.6379 48.853 27.339 43.5519 31.4454 39.4454C35.5519 35.339 40.853 32.6379 46.5889 31.7294C52.3249 30.821 58.2012 31.7517 63.3756 34.3882C68.5501 37.0247 72.757 41.2317 75.3935 46.4061L50.8909 58.8909L70.3363 78.3363Z" fill="black"/>
<mask id="path-2-inside-1_15_360" fill="white">
<path fill-rule="evenodd" clip-rule="evenodd" d="M155.052 63.1928C154.144 68.9287 151.443 74.2298 147.336 78.3363L127.891 58.8909L152.394 46.4061C155.03 51.5806 155.961 57.4569 155.052 63.1928ZM148 68C149.105 68 150 67.1046 150 66C150 64.8954 149.105 64 148 64C146.895 64 146 64.8954 146 66C146 67.1046 146.895 68 148 68ZM142 61C142 62.1046 141.105 63 140 63C138.895 63 138 62.1046 138 61C138 59.8954 138.895 59 140 59C141.105 59 142 59.8954 142 61ZM148 57C149.105 57 150 56.1046 150 55C150 53.8954 149.105 53 148 53C146.895 53 146 53.8954 146 55C146 56.1046 146.895 57 148 57Z"/>
</mask>
<path fill-rule="evenodd" clip-rule="evenodd" d="M155.052 63.1928C154.144 68.9287 151.443 74.2298 147.336 78.3363L127.891 58.8909L152.394 46.4061C155.03 51.5806 155.961 57.4569 155.052 63.1928ZM148 68C149.105 68 150 67.1046 150 66C150 64.8954 149.105 64 148 64C146.895 64 146 64.8954 146 66C146 67.1046 146.895 68 148 68ZM142 61C142 62.1046 141.105 63 140 63C138.895 63 138 62.1046 138 61C138 59.8954 138.895 59 140 59C141.105 59 142 59.8954 142 61ZM148 57C149.105 57 150 56.1046 150 55C150 53.8954 149.105 53 148 53C146.895 53 146 53.8954 146 55C146 56.1046 146.895 57 148 57Z" fill="black"/>
<path d="M147.336 78.3363L146.629 79.0434L147.336 79.7505L148.043 79.0434L147.336 78.3363ZM155.052 63.1928L154.065 63.0364L155.052 63.1928ZM127.891 58.8909L127.437 57.9999L126.211 58.6247L127.184 59.598L127.891 58.8909ZM152.394 46.4061L153.285 45.9521L152.831 45.0611L151.94 45.5151L152.394 46.4061ZM148.043 79.0434C152.299 74.7876 155.098 69.2938 156.04 63.3492L154.065 63.0364C153.189 68.5637 150.586 73.672 146.629 77.6292L148.043 79.0434ZM127.184 59.598L146.629 79.0434L148.043 77.6292L128.598 58.1838L127.184 59.598ZM151.94 45.5151L127.437 57.9999L128.345 59.7819L152.848 47.2971L151.94 45.5151ZM156.04 63.3492C156.982 57.4047 156.017 51.3148 153.285 45.9521L151.503 46.8601C154.043 51.8464 154.94 57.509 154.065 63.0364L156.04 63.3492ZM149 66C149 66.5523 148.552 67 148 67V69C149.657 69 151 67.6568 151 66H149ZM148 65C148.552 65 149 65.4477 149 66H151C151 64.3431 149.657 63 148 63V65ZM147 66C147 65.4477 147.448 65 148 65V63C146.343 63 145 64.3431 145 66H147ZM148 67C147.448 67 147 66.5523 147 66H145C145 67.6568 146.343 69 148 69V67ZM140 64C141.657 64 143 62.6568 143 61H141C141 61.5523 140.552 62 140 62V64ZM137 61C137 62.6568 138.343 64 140 64V62C139.448 62 139 61.5523 139 61H137ZM140 58C138.343 58 137 59.3431 137 61H139C139 60.4477 139.448 60 140 60V58ZM143 61C143 59.3431 141.657 58 140 58V60C140.552 60 141 60.4477 141 61H143ZM149 55C149 55.5523 148.552 56 148 56V58C149.657 58 151 56.6568 151 55H149ZM148 54C148.552 54 149 54.4477 149 55H151C151 53.3431 149.657 52 148 52V54ZM147 55C147 54.4477 147.448 54 148 54V52C146.343 52 145 53.3431 145 55H147ZM148 56C147.448 56 147 55.5523 147 55H145C145 56.6568 146.343 58 148 58V56Z" fill="black" mask="url(#path-2-inside-1_15_360)"/>
<circle cx="86.3909" cy="60" r="5" fill="black"/>
<circle cx="101.391" cy="60" r="5" fill="black"/>
<circle cx="116.391" cy="60" r="5" fill="black"/>
</svg>
