<svg width="340" height="75" viewBox="0 0 340 75" fill="none" xmlns="http://www.w3.org/2000/svg">
<g clip-path="url(#clip0_15_375)">
<path d="M185.1 51.2H193.9V57H181.2C179 54.9333 177.333 52.3167 176.2 49.15C175.067 45.9833 174.5 42.7333 174.5 39.4C174.5 36.0333 175.133 32.8 176.4 29.7C177.667 26.6 179.55 24.0333 182.05 22H193.9V28H185.1C184.2 29.0333 183.417 30.7 182.75 33C182.117 35.3 181.8 37.5 181.8 39.6C181.8 41.7 182.117 43.9 182.75 46.2C183.417 48.5 184.2 50.1667 185.1 51.2ZM218.968 57L217.918 51.45H210.018L208.968 57H202.168L208.918 22H219.268L225.668 57H218.968ZM213.868 28.5L211.918 40.15L210.818 46.1H217.068L215.918 40.15L213.968 28.5H213.868ZM235.08 22H248.38C250.48 22.7 252.263 24 253.73 25.9C255.23 27.7667 255.98 30.0667 255.98 32.8C255.98 37.2667 254.213 40.55 250.68 42.65L255.73 57H248.73L244.48 44.25H241.83V57H235.08V22ZM241.83 28V38.65H246.13C246.696 38.5167 247.313 37.95 247.98 36.95C248.68 35.9167 249.03 34.7167 249.03 33.35C249.03 31.9833 248.73 30.7833 248.13 29.75C247.563 28.7167 246.996 28.1333 246.43 28H241.83ZM278.841 41H278.641H278.841L281.491 30.05L283.641 22H289.891L292.141 57H285.591L284.641 37.9H284.391L280.791 52H276.691L273.091 37.9H272.841L271.891 57H265.341L267.591 22H273.841L275.991 30.05L278.641 41H278.841ZM317.57 57L316.52 51.45H308.62L307.57 57H300.77L307.52 22H317.87L324.27 57H317.57ZM312.47 28.5L310.52 40.15L309.42 46.1H315.67L314.52 40.15L312.57 28.5H312.47Z" fill="black"/>
<path d="M67.3363 58.3363C63.2298 62.4428 57.9287 65.1438 52.1928 66.0523C46.4569 66.9608 40.5806 66.0301 35.4061 63.3935C30.2317 60.757 26.0247 56.5501 23.3882 51.3756C20.7517 46.2012 19.821 40.3249 20.7294 34.5889C21.6379 28.853 24.339 23.5519 28.4454 19.4454C32.5519 15.339 37.853 12.6379 43.5889 11.7294C49.3249 10.821 55.2012 11.7517 60.3756 14.3882C65.5501 17.0247 69.757 21.2317 72.3935 26.4061L47.8909 38.8909L67.3363 58.3363Z" fill="black"/>
<mask id="path-3-inside-1_15_375" fill="white">
<path fill-rule="evenodd" clip-rule="evenodd" d="M152.052 43.1928C151.144 48.9288 148.443 54.2298 144.336 58.3363L124.891 38.8909L149.394 26.4061C152.03 31.5806 152.961 37.4569 152.052 43.1928ZM145 48C146.105 48 147 47.1046 147 46C147 44.8954 146.105 44 145 44C143.895 44 143 44.8954 143 46C143 47.1046 143.895 48 145 48ZM139 41C139 42.1046 138.105 43 137 43C135.895 43 135 42.1046 135 41C135 39.8954 135.895 39 137 39C138.105 39 139 39.8954 139 41ZM145 37C146.105 37 147 36.1046 147 35C147 33.8954 146.105 33 145 33C143.895 33 143 33.8954 143 35C143 36.1046 143.895 37 145 37Z"/>
</mask>
<path fill-rule="evenodd" clip-rule="evenodd" d="M152.052 43.1928C151.144 48.9288 148.443 54.2298 144.336 58.3363L124.891 38.8909L149.394 26.4061C152.03 31.5806 152.961 37.4569 152.052 43.1928ZM145 48C146.105 48 147 47.1046 147 46C147 44.8954 146.105 44 145 44C143.895 44 143 44.8954 143 46C143 47.1046 143.895 48 145 48ZM139 41C139 42.1046 138.105 43 137 43C135.895 43 135 42.1046 135 41C135 39.8954 135.895 39 137 39C138.105 39 139 39.8954 139 41ZM145 37C146.105 37 147 36.1046 147 35C147 33.8954 146.105 33 145 33C143.895 33 143 33.8954 143 35C143 36.1046 143.895 37 145 37Z" fill="black"/>
<path d="M144.336 58.3363L143.629 59.0434L144.336 59.7505L145.043 59.0434L144.336 58.3363ZM152.052 43.1928L151.065 43.0364L152.052 43.1928ZM124.891 38.8909L124.437 37.9999L123.211 38.6247L124.184 39.598L124.891 38.8909ZM149.394 26.4061L150.285 25.9521L149.831 25.0611L148.94 25.5151L149.394 26.4061ZM145.043 59.0434C149.299 54.7876 152.098 49.2938 153.04 43.3493L151.065 43.0364C150.189 48.5637 147.586 53.6721 143.629 57.6292L145.043 59.0434ZM124.184 39.598L143.629 59.0434L145.043 57.6292L125.598 38.1838L124.184 39.598ZM148.94 25.5151L124.437 37.9999L125.345 39.7819L149.848 27.2971L148.94 25.5151ZM153.04 43.3493C153.982 37.4047 153.017 31.3148 150.285 25.9521L148.503 26.8601C151.043 31.8464 151.94 37.509 151.065 43.0364L153.04 43.3493ZM146 46C146 46.5523 145.552 47 145 47V49C146.657 49 148 47.6569 148 46H146ZM145 45C145.552 45 146 45.4477 146 46H148C148 44.3431 146.657 43 145 43V45ZM144 46C144 45.4477 144.448 45 145 45V43C143.343 43 142 44.3431 142 46H144ZM145 47C144.448 47 144 46.5523 144 46H142C142 47.6569 143.343 49 145 49V47ZM137 44C138.657 44 140 42.6569 140 41H138C138 41.5523 137.552 42 137 42V44ZM134 41C134 42.6569 135.343 44 137 44V42C136.448 42 136 41.5523 136 41H134ZM137 38C135.343 38 134 39.3431 134 41H136C136 40.4477 136.448 40 137 40V38ZM140 41C140 39.3431 138.657 38 137 38V40C137.552 40 138 40.4477 138 41H140ZM146 35C146 35.5523 145.552 36 145 36V38C146.657 38 148 36.6569 148 35H146ZM145 34C145.552 34 146 34.4477 146 35H148C148 33.3431 146.657 32 145 32V34ZM144 35C144 34.4477 144.448 34 145 34V32C143.343 32 142 33.3431 142 35H144ZM145 36C144.448 36 144 35.5523 144 35H142C142 36.6569 143.343 38 145 38V36Z" fill="black" mask="url(#path-3-inside-1_15_375)"/>
<circle cx="83.3909" cy="40" r="5" fill="black"/>
<circle cx="98.3909" cy="40" r="5" fill="black"/>
<circle cx="113.391" cy="40" r="5" fill="black"/>
</g>
<defs>
<clipPath id="clip0_15_375">
<rect width="340" height="75" fill="white"/>
</clipPath>
</defs>
</svg>
