<svg width="53" height="54" viewBox="0 0 53 54" fill="none" xmlns="http://www.w3.org/2000/svg">
<path d="M48.3984 22.6328C47.2266 21.4609 45.4688 21.5781 44.2969 22.6328L30.9375 36.8125V3.0625C30.9375 1.53906 29.6484 0.25 28.125 0.25H24.375C22.7344 0.25 21.5625 1.53906 21.5625 3.0625V36.8125L8.08594 22.6328C6.91406 21.5781 5.15625 21.4609 3.98438 22.6328L1.40625 25.2109C0.351562 26.2656 0.351562 28.1406 1.40625 29.1953L24.2578 51.9297C25.3125 53.1016 27.0703 53.1016 28.2422 51.9297L50.9766 29.1953C52.0312 28.1406 52.0312 26.3828 50.9766 25.2109L48.3984 22.6328Z" fill="#FAB703"/>
</svg>
