<svg width="53" height="53" viewBox="0 0 53 53" fill="none" xmlns="http://www.w3.org/2000/svg">
<path d="M3.98438 30.4844C5.15625 31.6562 6.91406 31.5391 8.08594 30.4844L21.5625 16.3047V49.9375C21.5625 51.5781 22.7344 52.75 24.375 52.75H28.125C29.6484 52.75 30.9375 51.5781 30.9375 49.9375V16.3047L44.2969 30.3672C45.4688 31.5391 47.2266 31.5391 48.3984 30.4844L50.9766 27.9062C52.0312 26.7344 52.0312 24.9766 50.9766 23.9219L28.125 1.07031C27.0703 0.015625 25.3125 0.015625 24.2578 1.07031L1.40625 23.9219C0.351562 24.9766 0.351562 26.7344 1.40625 27.9062L3.98438 30.4844Z" fill="black"/>
</svg>
