<svg width="68" height="61" viewBox="0 0 68 61" fill="none" xmlns="http://www.w3.org/2000/svg">
<path d="M59.0625 38C60.3516 38 61.5234 37.1797 61.875 35.8906L67.3828 11.5156C67.7344 9.75781 66.4453 8 64.5703 8H18.6328L17.5781 2.84375C17.2266 1.55469 16.0547 0.5 14.7656 0.5H2.8125C1.17188 0.5 0 1.78906 0 3.3125V5.1875C0 6.82812 1.17188 8 2.8125 8H10.8984L19.2188 48.3125C17.1094 49.4844 15.7031 51.7109 15.9375 54.4062C16.0547 57.6875 18.75 60.3828 22.1484 60.5C25.8984 60.7344 29.0625 57.6875 29.0625 53.9375C29.0625 52.1797 28.2422 50.5391 27.0703 49.25H51.5625C50.3906 50.5391 49.5703 52.2969 49.6875 54.1719C49.6875 57.6875 52.6172 60.5 56.1328 60.5C59.7656 60.6172 62.8125 57.6875 62.8125 53.9375C62.8125 51.3594 61.2891 49.1328 59.0625 48.0781L59.6484 45.2656C60.1172 43.5078 58.7109 41.75 56.9531 41.75H25.5469L24.7266 38H59.0625ZM47.8125 20.1875C48.75 20.1875 49.6875 21.125 49.6875 22.0625V23.9375C49.6875 24.9922 48.75 25.8125 47.8125 25.8125H42.1875V30.5C42.1875 31.5547 41.25 32.375 40.3125 32.375H38.4375C37.3828 32.375 36.5625 31.5547 36.5625 30.5V25.8125H30.9375C29.8828 25.8125 29.0625 24.9922 29.0625 23.9375V22.0625C29.0625 21.125 29.8828 20.1875 30.9375 20.1875H36.5625V15.5C36.5625 14.5625 37.3828 13.625 38.4375 13.625H40.3125C41.25 13.625 42.1875 14.5625 42.1875 15.5V20.1875H47.8125Z" fill="black"/>
</svg>
