<svg width="60" height="45" viewBox="0 0 60 45" fill="none" xmlns="http://www.w3.org/2000/svg">
<path d="M58.8281 14.8828C56.1328 16.9922 52.7344 19.5703 40.7812 28.2422C38.4375 30 34.1016 33.8672 30 33.8672C25.7812 33.8672 21.5625 30 19.1016 28.2422C7.14844 19.5703 3.75 16.9922 1.05469 14.8828C0.585938 14.5312 0 14.8828 0 15.4688V39.375C0 42.5391 2.46094 45 5.625 45H54.375C57.4219 45 60 42.5391 60 39.375V15.4688C60 14.8828 59.2969 14.5312 58.8281 14.8828ZM30 30C32.6953 30.1172 36.5625 26.6016 38.5547 25.1953C54.1406 13.9453 55.3125 12.8906 58.8281 10.0781C59.5312 9.60938 60 8.78906 60 7.85156V5.625C60 2.57812 57.4219 0 54.375 0H5.625C2.46094 0 0 2.57812 0 5.625V7.85156C0 8.78906 0.351562 9.60938 1.05469 10.0781C4.57031 12.8906 5.74219 13.9453 21.3281 25.1953C23.3203 26.6016 27.1875 30.1172 30 30Z" fill="black"/>
</svg>
