<svg width="69" height="53" viewBox="0 0 69 53" fill="none" xmlns="http://www.w3.org/2000/svg">
<path d="M33.8125 13.9609L12.25 31.7734V50.875C12.25 51.9297 13.0703 52.75 14.125 52.75H27.25C28.1875 52.75 29.0078 51.9297 29.0078 50.875V39.625C29.0078 38.6875 29.9453 37.75 30.8828 37.75H38.3828C39.4375 37.75 40.2578 38.6875 40.2578 39.625V50.875C40.2578 51.9297 41.1953 52.75 42.1328 52.75H55.375C56.3125 52.75 57.25 51.9297 57.25 50.875V31.6562L35.5703 13.9609C35.3359 13.7266 34.9844 13.6094 34.75 13.6094C34.3984 13.6094 34.0469 13.7266 33.8125 13.9609ZM67.9141 26.0312L58.1875 17.9453V1.77344C58.1875 0.953125 57.4844 0.367188 56.7812 0.367188H50.2188C49.3984 0.367188 48.8125 0.953125 48.8125 1.77344V10.2109L38.2656 1.53906C37.3281 0.835938 36.0391 0.367188 34.75 0.367188C33.3438 0.367188 32.0547 0.835938 31.1172 1.53906L1.46875 26.0312C1.11719 26.2656 0.882812 26.7344 0.882812 27.0859C0.882812 27.4375 1.11719 27.7891 1.23438 28.0234L4.28125 31.6562C4.51562 32.0078 4.86719 32.125 5.33594 32.125C5.6875 32.125 6.03906 32.0078 6.27344 31.7734L33.8125 9.15625C34.0469 8.92188 34.3984 8.80469 34.75 8.80469C34.9844 8.80469 35.3359 8.92188 35.5703 9.15625L63.1094 31.7734C63.3438 32.0078 63.6953 32.125 64.0469 32.125C64.5156 32.125 64.8672 32.0078 65.1016 31.6562L68.1484 28.0234C68.3828 27.7891 68.5 27.4375 68.5 27.0859C68.5 26.7344 68.2656 26.2656 67.9141 26.0312Z" fill="black"/>
</svg>
