<svg width="68" height="54" viewBox="0 0 68 54" fill="none" xmlns="http://www.w3.org/2000/svg">
<path d="M63.5156 0.867188C57.0703 1.21875 44.2969 2.50781 36.4453 7.3125C35.8594 7.66406 35.5078 8.25 35.5078 8.83594V51.4922C35.5078 52.8984 37.0312 53.7188 38.3203 53.1328C46.4062 49.0312 58.125 47.8594 63.8672 47.625C65.8594 47.5078 67.3828 45.8672 67.3828 43.9922V4.38281C67.5 2.39062 65.625 0.75 63.5156 0.867188ZM30.9375 7.3125C23.0859 2.50781 10.3125 1.21875 3.86719 0.867188C1.75781 0.75 0 2.39062 0 4.38281V43.9922C0 45.8672 1.52344 47.5078 3.51562 47.625C9.25781 47.8594 20.9766 49.0312 29.0625 53.1328C30.3516 53.7188 31.875 52.8984 31.875 51.4922V8.83594C31.875 8.25 31.5234 7.66406 30.9375 7.3125Z" fill="black"/>
</svg>
