<svg width="53" height="53" viewBox="0 0 53 53" fill="none" xmlns="http://www.w3.org/2000/svg">
<path d="M46.875 0.25H5.625C2.46094 0.25 0 2.82812 0 5.875V47.125C0 50.2891 2.46094 52.75 5.625 52.75H46.875C49.9219 52.75 52.5 50.2891 52.5 47.125V5.875C52.5 2.82812 49.9219 0.25 46.875 0.25ZM10.7812 31.1875C9.96094 31.1875 9.375 30.6016 9.375 29.7812V23.2188C9.375 22.5156 9.96094 21.8125 10.7812 21.8125H41.7188C42.4219 21.8125 43.125 22.5156 43.125 23.2188V29.7812C43.125 30.6016 42.4219 31.1875 41.7188 31.1875H10.7812Z" fill="black"/>
</svg>
