<svg width="60" height="61" viewBox="0 0 60 61" fill="none" xmlns="http://www.w3.org/2000/svg">
<path d="M38.6719 31.4375V20.8906L32.4609 18.0781C25.6641 26.1641 23.0859 47.375 6.5625 47.375C2.92969 47.375 0 50.4219 0 53.9375C0 57.5703 2.92969 60.5 6.5625 60.5C31.4062 60.5 49.9219 46.2031 55.6641 35.8906L51.3281 31.4375H38.6719ZM54.0234 16.3203C57.7734 9.28906 55.8984 3.66406 53.6719 0.851562C53.5547 0.734375 53.2031 0.617188 52.9688 0.617188C52.7344 0.617188 52.5 0.617188 52.2656 0.851562L49.5703 3.54688C49.4531 3.66406 49.3359 3.89844 49.3359 4.25C49.3359 4.36719 49.4531 4.60156 49.4531 4.71875C50.2734 5.89062 51.4453 8.82031 49.3359 13.1562C47.3438 12.3359 45 11.8672 42.6562 11.75C39.375 11.75 36.3281 12.8047 33.75 14.4453L42.4219 18.4297V27.6875H52.8516L59.2969 34.25C59.6484 32.8438 60 31.3203 60 29.6797C60 24.4062 57.6562 19.6016 54.0234 16.3203Z" fill="black"/>
</svg>
