<svg width="61" height="61" viewBox="0 0 61 61" fill="none" xmlns="http://www.w3.org/2000/svg">
<path d="M58.7734 3.42969L46.5859 0.617188C45.2969 0.265625 43.8906 0.96875 43.3047 2.25781L37.6797 15.3828C37.2109 16.5547 37.5625 17.8438 38.5 18.6641L45.6484 24.5234C41.4297 33.4297 34.0469 40.9297 24.9062 45.2656L19.0469 38.1172C18.2266 37.1797 16.9375 36.8281 15.7656 37.2969L2.64062 42.9219C1.35156 43.5078 0.765625 44.9141 1 46.2031L3.8125 58.3906C4.16406 59.6797 5.21875 60.5 6.625 60.5C36.625 60.5 61 36.2422 61 6.125C61 4.83594 60.0625 3.78125 58.7734 3.42969Z" fill="black"/>
</svg>
