<svg width="61" height="61" viewBox="0 0 61 61" fill="none" xmlns="http://www.w3.org/2000/svg">
<path d="M18.5156 0.617188C16.6406 0.382812 14.8828 1.55469 14.4141 3.42969L12.6562 9.99219C34.6875 10.6953 49.5703 25.3438 50.5078 47.1406L57.1875 45.2656C58.9453 44.7969 60.1172 43.0391 59.8828 41.0469C57.4219 19.9531 39.8438 2.60938 18.5156 0.617188ZM11.7188 13.7422L0 58.1562C0 58.2734 0 58.5078 0 58.625C0 59.6797 0.820312 60.5 1.875 60.5C1.99219 60.5 2.22656 60.5 2.34375 60.5L46.7578 48.1953C46.2891 27.6875 32.3438 13.9766 11.7188 13.7422ZM15 49.25C12.8906 49.25 11.25 47.6094 11.25 45.5C11.25 43.5078 12.8906 41.75 15 41.75C16.9922 41.75 18.75 43.5078 18.75 45.5C18.75 47.6094 16.9922 49.25 15 49.25ZM20.625 31.4375C18.5156 31.4375 16.875 29.7969 16.875 27.6875C16.875 25.6953 18.5156 23.9375 20.625 23.9375C22.6172 23.9375 24.375 25.6953 24.375 27.6875C24.375 29.7969 22.6172 31.4375 20.625 31.4375ZM32.8125 43.625C30.7031 43.625 29.0625 41.9844 29.0625 39.875C29.0625 37.8828 30.7031 36.125 32.8125 36.125C34.8047 36.125 36.5625 37.8828 36.5625 39.875C36.5625 41.9844 34.8047 43.625 32.8125 43.625Z" fill="black"/>
</svg>
