<svg width="68" height="61" viewBox="0 0 68 61" fill="none" xmlns="http://www.w3.org/2000/svg">
<path d="M61.875 35.8906L67.3828 11.5156C67.7344 9.75781 66.4453 8 64.5703 8H18.6328L17.5781 2.84375C17.2266 1.55469 16.0547 0.5 14.7656 0.5H2.8125C1.17188 0.5 0 1.78906 0 3.3125V5.1875C0 6.82812 1.17188 8 2.8125 8H10.8984L19.2188 48.3125C17.2266 49.4844 15.9375 51.5938 15.9375 53.9375C15.9375 57.5703 18.8672 60.5 22.5 60.5C26.0156 60.5 29.0625 57.5703 29.0625 53.9375C29.0625 52.1797 28.2422 50.5391 27.0703 49.25H51.5625C50.3906 50.5391 49.6875 52.1797 49.6875 53.9375C49.6875 57.5703 52.6172 60.5 56.25 60.5C59.7656 60.5 62.8125 57.5703 62.8125 53.9375C62.8125 51.3594 61.2891 49.1328 59.0625 48.0781L59.6484 45.2656C60.1172 43.5078 58.7109 41.75 56.9531 41.75H25.5469L24.7266 38H59.0625C60.3516 38 61.5234 37.1797 61.875 35.8906Z" fill="black"/>
</svg>
