<svg width="53" height="61" viewBox="0 0 53 61" fill="none" xmlns="http://www.w3.org/2000/svg">
<path d="M3.75 54.875C3.75 58.0391 6.21094 60.5 9.375 60.5H43.125C46.1719 60.5 48.75 58.0391 48.75 54.875V15.5H3.75V54.875ZM35.625 24.875C35.625 23.9375 36.4453 23 37.5 23C38.4375 23 39.375 23.9375 39.375 24.875V51.125C39.375 52.1797 38.4375 53 37.5 53C36.4453 53 35.625 52.1797 35.625 51.125V24.875ZM24.375 24.875C24.375 23.9375 25.1953 23 26.25 23C27.1875 23 28.125 23.9375 28.125 24.875V51.125C28.125 52.1797 27.1875 53 26.25 53C25.1953 53 24.375 52.1797 24.375 51.125V24.875ZM13.125 24.875C13.125 23.9375 13.9453 23 15 23C15.9375 23 16.875 23.9375 16.875 24.875V51.125C16.875 52.1797 15.9375 53 15 53C13.9453 53 13.125 52.1797 13.125 51.125V24.875ZM50.625 4.25H36.5625L35.3906 2.14062C34.9219 1.20312 33.9844 0.5 32.9297 0.5H19.4531C18.3984 0.5 17.4609 1.20312 16.9922 2.14062L15.9375 4.25H1.875C0.820312 4.25 0 5.1875 0 6.125V9.875C0 10.9297 0.820312 11.75 1.875 11.75H50.625C51.5625 11.75 52.5 10.9297 52.5 9.875V6.125C52.5 5.1875 51.5625 4.25 50.625 4.25Z" fill="black"/>
</svg>
