<svg width="60" height="49" viewBox="0 0 60 49" fill="none" xmlns="http://www.w3.org/2000/svg">
<path d="M53.7891 12.3125C53.7891 12.8984 53.7891 13.3672 53.7891 13.9531C53.7891 30.2422 41.4844 48.875 18.8672 48.875C11.8359 48.875 5.39062 46.8828 0 43.3672C0.9375 43.4844 1.875 43.6016 2.92969 43.6016C8.67188 43.6016 13.9453 41.6094 18.1641 38.3281C12.7734 38.2109 8.20312 34.6953 6.67969 29.7734C7.5 29.8906 8.20312 30.0078 9.02344 30.0078C10.0781 30.0078 11.25 29.7734 12.1875 29.5391C6.5625 28.3672 2.34375 23.4453 2.34375 17.4688V17.3516C3.98438 18.2891 5.97656 18.7578 7.96875 18.875C4.57031 16.6484 2.46094 12.8984 2.46094 8.67969C2.46094 6.33594 3.04688 4.22656 4.10156 2.46875C10.1953 9.85156 19.3359 14.7734 29.5312 15.3594C29.2969 14.4219 29.1797 13.4844 29.1797 12.5469C29.1797 5.75 34.6875 0.242188 41.4844 0.242188C45 0.242188 48.1641 1.64844 50.5078 4.10938C53.2031 3.52344 55.8984 2.46875 58.2422 1.0625C57.3047 3.99219 55.4297 6.33594 52.8516 7.85938C55.3125 7.625 57.7734 6.92188 59.8828 5.98438C58.2422 8.44531 56.1328 10.5547 53.7891 12.3125Z" fill="black"/>
</svg>
