<svg width="53" height="60" viewBox="0 0 53 60" fill="none" xmlns="http://www.w3.org/2000/svg">
<path d="M26.25 30C34.4531 30 41.25 23.3203 41.25 15C41.25 6.79688 34.4531 0 26.25 0C17.9297 0 11.25 6.79688 11.25 15C11.25 23.3203 17.9297 30 26.25 30ZM36.6797 33.75H34.6875C32.1094 35.0391 29.2969 35.625 26.25 35.625C23.2031 35.625 20.2734 35.0391 17.6953 33.75H15.7031C7.03125 33.75 0 40.8984 0 49.5703V54.375C0 57.5391 2.46094 60 5.625 60H46.875C49.9219 60 52.5 57.5391 52.5 54.375V49.5703C52.5 40.8984 45.3516 33.75 36.6797 33.75Z" fill="black"/>
</svg>
