<svg width="60" height="53" viewBox="0 0 60 53" fill="none" xmlns="http://www.w3.org/2000/svg">
<path d="M54.375 0.25H5.625C2.46094 0.25 0 2.82812 0 5.875V47.125C0 50.2891 2.46094 52.75 5.625 52.75H54.375C57.4219 52.75 60 50.2891 60 47.125V5.875C60 2.82812 57.4219 0.25 54.375 0.25ZM44.5312 34.3516C45.1172 34.9375 45.1172 35.875 44.5312 36.3438L39.7266 41.1484C39.2578 41.7344 38.3203 41.7344 37.7344 41.1484L30 33.2969L22.1484 41.1484C21.5625 41.7344 20.625 41.7344 20.1562 41.1484L15.3516 36.3438C14.7656 35.875 14.7656 34.9375 15.3516 34.3516L23.2031 26.5L15.3516 18.7656C14.7656 18.1797 14.7656 17.2422 15.3516 16.7734L20.1562 11.9688C20.625 11.3828 21.5625 11.3828 22.1484 11.9688L30 19.8203L37.7344 11.9688C38.3203 11.3828 39.2578 11.3828 39.7266 11.9688L44.5312 16.7734C45.1172 17.2422 45.1172 18.1797 44.5312 18.7656L36.6797 26.5L44.5312 34.3516Z" fill="black"/>
</svg>
